<svg width="133" height="32" viewBox="0 0 133 32" fill="none" xmlns="http://www.w3.org/2000/svg">
<path d="M34.7371 24.5317V7.49174H41.1211C43.2011 7.49174 44.7771 7.85974 45.8491 8.59574C46.9371 9.33174 47.4811 10.4997 47.4811 12.0997C47.4811 12.8197 47.3291 13.4517 47.0251 13.9957C46.7371 14.5237 46.3051 14.9397 45.7291 15.2437C45.1691 15.5477 44.4891 15.7157 43.6891 15.7477L43.6651 15.6997C45.1211 15.7477 46.2411 16.1477 47.0251 16.8997C47.8091 17.6357 48.2011 18.6197 48.2011 19.8517C48.2011 21.4197 47.6571 22.5957 46.5691 23.3797C45.4971 24.1477 43.9691 24.5317 41.9851 24.5317H34.7371ZM37.8571 21.8917H41.8411C42.8171 21.8917 43.5851 21.6917 44.1451 21.2917C44.7211 20.8917 45.0091 20.2997 45.0091 19.5157C45.0091 18.7317 44.7291 18.1317 44.1691 17.7157C43.6091 17.2997 42.8331 17.0917 41.8411 17.0917H37.8571V21.8917ZM37.8571 14.6437H41.0251C42.0491 14.6437 42.8491 14.4517 43.4251 14.0677C44.0011 13.6837 44.2891 13.1237 44.2891 12.3877C44.2891 11.6197 44.0091 11.0517 43.4491 10.6837C42.8891 10.3157 42.0811 10.1317 41.0251 10.1317H37.8571V14.6437ZM50.9971 24.5317V11.7157H54.0691V24.5317H50.9971ZM50.9491 10.0117V7.27574H54.1411V10.0117H50.9491ZM61.7816 24.5317C60.5016 24.5317 59.5576 24.2357 58.9496 23.6437C58.3576 23.0517 58.0616 22.1237 58.0616 20.8597V8.71574H61.1336V20.5717C61.1336 21.1637 61.2616 21.5797 61.5176 21.8197C61.7736 22.0437 62.1736 22.1557 62.7176 22.1557H64.5176V24.5317H61.7816ZM56.0456 14.0917V11.7157H64.5176V14.0917H56.0456ZM72.1036 24.8197C70.8236 24.8197 69.7116 24.5477 68.7676 24.0037C67.8236 23.4437 67.0956 22.6597 66.5836 21.6517C66.0716 20.6437 65.8156 19.4677 65.8156 18.1237C65.8156 16.7797 66.0716 15.6117 66.5836 14.6197C67.0956 13.6117 67.8156 12.8277 68.7436 12.2677C69.6876 11.7077 70.7836 11.4277 72.0316 11.4277C73.2476 11.4277 74.3116 11.6997 75.2236 12.2437C76.1516 12.7877 76.8636 13.5717 77.3596 14.5957C77.8556 15.6197 78.1036 16.8517 78.1036 18.2917V18.9877H69.0076C69.0716 20.1077 69.3756 20.9557 69.9196 21.5317C70.4796 22.0917 71.2156 22.3717 72.1276 22.3717C72.8156 22.3717 73.3836 22.2197 73.8316 21.9157C74.2956 21.5957 74.6156 21.1557 74.7916 20.5957L77.9356 20.7877C77.5836 22.0357 76.8876 23.0197 75.8476 23.7397C74.8236 24.4597 73.5756 24.8197 72.1036 24.8197ZM69.0076 16.9237H74.9356C74.8716 15.8837 74.5756 15.1157 74.0476 14.6197C73.5196 14.1077 72.8476 13.8517 72.0316 13.8517C71.2156 13.8517 70.5356 14.1157 69.9916 14.6437C69.4636 15.1717 69.1356 15.9317 69.0076 16.9237ZM87.9873 24.9157C86.4353 24.9157 85.0673 24.5637 83.8833 23.8597C82.6993 23.1397 81.7713 22.1237 81.0993 20.8117C80.4273 19.4837 80.0913 17.8917 80.0913 16.0357C80.0913 14.2117 80.4193 12.6357 81.0753 11.3077C81.7313 9.96374 82.6513 8.93174 83.8353 8.21174C85.0193 7.47574 86.4113 7.10774 88.0113 7.10774C90.1873 7.10774 91.8753 7.65174 93.0753 8.73974C94.2753 9.81174 95.0593 11.3157 95.4273 13.2517L92.1633 13.4197C91.9553 12.2997 91.5073 11.4197 90.8193 10.7797C90.1313 10.1397 89.1953 9.81974 88.0113 9.81974C87.0513 9.81974 86.2193 10.0757 85.5153 10.5877C84.8113 11.0997 84.2673 11.8197 83.8833 12.7477C83.4993 13.6757 83.3073 14.7717 83.3073 16.0357C83.3073 17.3157 83.4993 18.4197 83.8833 19.3477C84.2833 20.2597 84.8353 20.9637 85.5393 21.4597C86.2433 21.9557 87.0593 22.2037 87.9873 22.2037C89.2513 22.2037 90.2273 21.8597 90.9153 21.1717C91.6193 20.4677 92.0673 19.5077 92.2593 18.2917L95.5233 18.4597C95.2993 19.7877 94.8673 20.9397 94.2273 21.9157C93.5873 22.8757 92.7393 23.6197 91.6833 24.1477C90.6433 24.6597 89.4113 24.9157 87.9873 24.9157ZM100.897 24.5317C99.9693 24.5317 99.2253 24.2917 98.6653 23.8117C98.1053 23.3317 97.8253 22.5637 97.8253 21.5077V7.49174H100.897V21.1957C100.897 21.5157 100.977 21.7557 101.137 21.9157C101.313 22.0757 101.553 22.1557 101.857 22.1557H102.793V24.5317H100.897ZM108.987 24.8197C107.691 24.8197 106.659 24.3957 105.891 23.5477C105.139 22.6837 104.763 21.4917 104.763 19.9717V11.7157H107.835V19.2037C107.835 20.2757 108.011 21.0677 108.363 21.5797C108.731 22.0757 109.283 22.3237 110.019 22.3237C110.851 22.3237 111.491 22.0517 111.939 21.5077C112.403 20.9477 112.635 20.1397 112.635 19.0837V11.7157H115.707V24.5317H112.899L112.827 21.0037L113.211 21.1237C113.019 22.3397 112.563 23.2597 111.843 23.8837C111.123 24.5077 110.171 24.8197 108.987 24.8197ZM125.737 24.8197C124.841 24.8197 124.057 24.6277 123.385 24.2437C122.729 23.8597 122.217 23.3237 121.849 22.6357L121.777 24.5317H118.849V7.49174H121.921V13.5397C122.273 12.9477 122.777 12.4517 123.433 12.0517C124.089 11.6357 124.857 11.4277 125.737 11.4277C126.841 11.4277 127.793 11.7077 128.593 12.2677C129.409 12.8117 130.033 13.5877 130.465 14.5957C130.913 15.5877 131.137 16.7637 131.137 18.1237C131.137 19.4837 130.913 20.6677 130.465 21.6757C130.033 22.6677 129.409 23.4437 128.593 24.0037C127.793 24.5477 126.841 24.8197 125.737 24.8197ZM125.041 22.3237C125.921 22.3237 126.625 21.9557 127.153 21.2197C127.681 20.4677 127.945 19.4357 127.945 18.1237C127.945 16.7957 127.681 15.7637 127.153 15.0277C126.641 14.2917 125.945 13.9237 125.065 13.9237C124.409 13.9237 123.841 14.0917 123.361 14.4277C122.897 14.7477 122.537 15.2197 122.281 15.8437C122.041 16.4677 121.921 17.2277 121.921 18.1237C121.921 18.9877 122.041 19.7397 122.281 20.3797C122.537 21.0037 122.897 21.4837 123.361 21.8197C123.825 22.1557 124.385 22.3237 125.041 22.3237Z" fill="#1F1D1B"/>
<path fill-rule="evenodd" clip-rule="evenodd" d="M14 2C6.26801 2 0 8.26801 0 16C0 23.1432 5.34982 29.037 12.2614 29.8931L12.7075 24.4575C12.7421 24.0276 12.6488 23.597 12.4386 23.2165C12.2283 22.836 11.9098 22.5213 11.5205 22.3094C9.89773 21.4198 8 19.5887 8 17.3597V9.96437C8.00112 9.70818 8.10718 9.46281 8.29505 9.28177C8.47291 9.10846 8.71297 9.0077 8.96563 9.00031H8.99246C9.11711 8.99987 9.2406 9.02339 9.35573 9.06949C9.47087 9.11559 9.57533 9.18336 9.66303 9.26883C9.76917 9.36988 9.85346 9.49026 9.91102 9.62298C9.96857 9.75571 9.99825 9.89813 9.99832 10.042V15.4058C9.99832 15.7919 10.1573 16.1621 10.4402 16.4352C10.7232 16.7082 11.107 16.8615 11.5071 16.8615C11.9073 16.8615 12.291 16.7082 12.574 16.4352C12.857 16.1621 13.0159 15.7919 13.0159 15.4058V9.96437C13.0161 9.70864 13.121 9.46333 13.3076 9.28177C13.4866 9.1101 13.726 9.00963 13.9782 9.00031C14.107 8.99708 14.2351 9.0189 14.3549 9.06447C14.4747 9.11005 14.5838 9.17845 14.6756 9.26559C14.7823 9.36692 14.8669 9.4878 14.9245 9.62113C14.9821 9.75447 15.0114 9.89756 15.0109 10.042V15.4058C15.0108 15.6056 15.0534 15.8032 15.1361 15.9864C15.2188 16.1696 15.3397 16.3344 15.4914 16.4704C15.6431 16.6064 15.8222 16.7108 16.0176 16.777C16.213 16.8432 16.4205 16.8698 16.627 16.8551C17.012 16.8202 17.3693 16.6467 17.6277 16.3691C17.8862 16.0916 18.0268 15.7303 18.0218 15.3572V9.96437C18.022 9.70864 18.1268 9.46333 18.3135 9.28177C18.4925 9.1101 18.7319 9.00963 18.9841 9.00031C19.1105 8.99991 19.2358 9.02372 19.3526 9.07036C19.4694 9.11701 19.5755 9.18557 19.6647 9.27206C19.7708 9.37311 19.8551 9.49349 19.9127 9.62622C19.9702 9.75894 19.9999 9.90137 20 10.0452V17.3597C20.0017 18.1213 19.847 18.8756 19.5449 19.5791C19.2428 20.2826 18.7992 20.9214 18.2397 21.4586C17.7837 21.805 17.2762 22.0831 16.7343 22.2835C16.281 22.4694 15.8999 22.7881 15.6447 23.1945C15.3896 23.6009 15.2734 24.0744 15.3126 24.5481L15.752 29.8914C22.6571 29.0294 28 23.1386 28 16C28 8.26801 21.732 2 14 2Z" fill="#16A34A"/>
</svg>
